<svg width="32" height="32" viewBox="0 0 32 32" fill="none" xmlns="http://www.w3.org/2000/svg">
<path d="M9.50495 22.5068V15.7824L24.6337 0.672435C24.8713 0.435105 25.1353 0.2637 25.4257 0.15822C25.7162 0.05274 26.0066 0 26.297 0C26.5875 0 26.8845 0.0593325 27.1881 0.177998C27.4917 0.296663 27.7624 0.47466 28 0.71199L31.2871 4.03461C31.5247 4.27194 31.703 4.53564 31.8218 4.82571C31.9406 5.11578 32 5.40585 32 5.69592C32 5.98599 31.9406 6.28265 31.8218 6.58591C31.703 6.88916 31.5247 7.15946 31.2871 7.39679L16.2376 22.5068H9.50495ZM26.9307 8.46477L29.6238 5.69592L26.297 2.3733L23.5644 5.1026L26.9307 8.46477ZM2.37624 32C1.74257 32 1.18812 31.7627 0.712871 31.288C0.237624 30.8133 0 30.2596 0 29.6267V5.8937C0 5.26082 0.237624 4.70705 0.712871 4.23239C1.18812 3.75773 1.74257 3.5204 2.37624 3.5204H18.4158L7.12871 14.7936V24.8801H17.1089L28.5148 13.4883V29.6267C28.5148 30.2596 28.2772 30.8133 27.802 31.288C27.3267 31.7627 26.7723 32 26.1386 32H2.37624Z" fill="#111111"/>
</svg>
