<svg width="32" height="32" viewBox="0 0 32 32" fill="none" xmlns="http://www.w3.org/2000/svg">
<path d="M2.37624 32C1.74257 32 1.18812 31.7627 0.712871 31.288C0.237624 30.8133 0 30.2596 0 29.6267V5.8937C0 5.26082 0.237624 4.70705 0.712871 4.23239C1.18812 3.75773 1.74257 3.5204 2.37624 3.5204H18.4158L16.0396 5.8937H2.37624V29.6267H26.1386V15.8616L28.5148 13.4883V29.6267C28.5148 30.2596 28.2772 30.8133 27.802 31.288C27.3267 31.7627 26.7723 32 26.1386 32H2.37624ZM9.50495 22.5068V15.7824L24.6337 0.672435C24.8713 0.435105 25.1353 0.2637 25.4257 0.15822C25.7162 0.05274 26.0066 0 26.297 0C26.5875 0 26.8821 0.0593325 27.181 0.177998C27.4796 0.296663 27.7526 0.47466 28 0.71199L31.2871 4.03461C31.5145 4.27089 31.69 4.53169 31.8139 4.81701C31.938 5.1026 32 5.39293 32 5.68801C32 5.98335 31.9406 6.28265 31.8218 6.58591C31.703 6.88916 31.5247 7.15946 31.2871 7.39679L16.2376 22.5068H9.50495ZM11.8812 20.1335H15.2475L25.2673 10.1261L21.8614 6.80346L11.8812 16.7318V20.1335Z" fill="#111111"/>
</svg>
