<svg width="32" height="32" viewBox="0 0 32 32" fill="none" xmlns="http://www.w3.org/2000/svg">
<path d="M4 32C3.34 32 2.77507 31.7649 2.3052 31.2948C1.83507 30.8249 1.6 30.26 1.6 29.6V10.28C1.14667 10.12 0.766667 9.8348 0.46 9.4244C0.153333 9.014 0 8.5392 0 8V2.4C0 1.74 0.235067 1.17493 0.7052 0.7048C1.17507 0.234933 1.74 0 2.4 0H29.6C30.26 0 30.8251 0.234933 31.2952 0.7048C31.7651 1.17493 32 1.74 32 2.4V8C32 8.5392 31.8467 9.014 31.54 9.4244C31.2333 9.8348 30.8533 10.12 30.4 10.28V29.6C30.4 30.26 30.1651 30.8249 29.6952 31.2948C29.2251 31.7649 28.66 32 28 32H4ZM2.4 8H29.6V2.4H2.4V8ZM11.2 18.4H20.8V16H11.2V18.4Z" fill="#111111"/>
</svg>
