<svg width="16" height="22" viewBox="0 0 16 22" fill="none" xmlns="http://www.w3.org/2000/svg">
<path d="M0 18.7116V17.7116H1.01937V9.05781C1.01937 7.34135 1.5726 5.84771 2.67906 4.57688C3.78573 3.30604 5.18438 2.5601 6.875 2.33906V0.875C6.875 0.631875 6.95979 0.425312 7.12938 0.255312C7.29896 0.0851036 7.5049 0 7.74719 0C7.98948 0 8.19635 0.0851036 8.36781 0.255312C8.53927 0.425312 8.625 0.631875 8.625 0.875V2.33906C10.3156 2.5601 11.7143 3.30604 12.8209 4.57688C13.9274 5.84771 14.4806 7.34135 14.4806 9.05781V17.7116H15.5V18.7116H0ZM7.73906 21.9806C7.24948 21.9806 6.83406 21.8074 6.49281 21.4609C6.15135 21.1145 5.98063 20.698 5.98063 20.2116H9.51937C9.51937 20.7084 9.345 21.1275 8.99625 21.4688C8.64771 21.81 8.22865 21.9806 7.73906 21.9806ZM2.01937 17.7116H13.4806V9.05781C13.4806 7.4551 12.9261 6.09927 11.8172 4.99031C10.7082 3.88135 9.3525 3.32688 7.75 3.32688C6.1475 3.32688 4.79177 3.88135 3.68281 4.99031C2.57385 6.09927 2.01937 7.4551 2.01937 9.05781V17.7116Z" fill="#444444"/>
</svg>
